# File created by Blade
# Date/Time:  Thu Jan 22 16:36:26 2015
# Frame Rate: 120.000 fps
#------------------------------------------------------
:FULLY-SPECIFIED
:DEGREES
2257
root -0.863297 6.366182 -7.358537 -15.741957 -27.969288 47.287511
RightUpLeg -98.467758 10.360158 40.518118
RightLeg 144.406636 -0.000000 -0.000000
RightFoot -4.805204 19.230123 -70.343031
RightToeBase -292.502763 -0.000000 -0.000000
LeftUpLeg -13.157410 -24.050750 35.243704
LeftLeg 153.962801 -0.000000 -0.000000
LeftFoot 27.307775 15.616859 -19.703213
LeftToeBase 9.338176 -0.000000 -0.000000
Spine 32.734305 3.730063 -2.188315
RightShoulder -3.275329 -25.400152 -38.385410
RightArm -1.270204 3.551578 84.104391
RightForeArm -16.214546 -0.000000 76.464917
RightHand 28.912013 -0.000000 -64.737378
RightHandThumb1 -24.326973 -0.000000 -32.862282
LeftShoulder -35.390650 31.735709 -14.968434
LeftArm 27.011466 -0.305981 -81.870398
LeftForeArm 33.748072 -0.000000 45.393350
LeftHand -28.710279 -0.000000 -19.624416
LeftHandThumb1 -26.253704 0.000000 33.147579
Head -19.448725 17.268252 -37.692151
2258
root -0.862881 6.368110 -7.355274 -15.731822 -27.913731 47.295936
RightUpLeg -98.532418 10.305882 40.409268
RightLeg 144.421247 -0.000000 -0.000000
RightFoot -4.991435 19.273319 -70.358138
RightToeBase -292.474531 -0.000000 -0.000000
LeftUpLeg -13.215113 -24.148452 35.255594
LeftLeg 153.988752 -0.000000 -0.000000
LeftFoot 27.327220 15.589407 -19.729325
LeftToeBase 9.333958 -0.000000 -0.000000
Spine 32.712803 3.682704 -2.174677
RightShoulder -3.262749 -25.444121 -38.427348
RightArm -1.273287 3.540149 84.130023
RightForeArm -16.154617 -0.000000 76.477025
RightHand 28.932126 -0.000000 -64.801301
RightHandThumb1 -24.326973 -0.000000 -32.862282
LeftShoulder -35.397275 31.780200 -14.993636
LeftArm 27.014995 -0.291791 -81.858855
LeftForeArm 33.790031 -0.000000 45.485087
LeftHand -28.726034 0.000000 -19.709128
LeftHandThumb1 -26.253704 0.000000 33.147579
Head -19.408046 17.328275 -37.642042
2259
root -0.864531 6.369388 -7.351941 -15.767645 -27.891936 47.324457
RightUpLeg -98.560908 10.265308 40.276094
RightLeg 144.438520 -0.000000 -0.000000
RightFoot -5.210137 19.339647 -70.362757
RightToeBase -292.451623 -0.000000 -0.000000
LeftUpLeg -13.206566 -24.231261 35.232064
LeftLeg 154.006875 -0.000000 -0.000000
LeftFoot 27.308595 15.593320 -19.774103
LeftToeBase 9.464680 -0.000000 -0.000000
Spine 32.749842 3.677389 -2.196684
RightShoulder -3.275789 -25.505197 -38.435899
RightArm -1.218490 3.532695 84.145200
RightForeArm -16.222723 -0.000000 76.475344
RightHand 28.920053 -0.000000 -64.763016
RightHandThumb1 -24.326973 -0.000000 -32.862282
LeftShoulder -35.446003 31.812070 -15.003467
LeftArm 27.038714 -0.229142 -81.837933
LeftForeArm 33.741180 0.000000 45.591773
LeftHand -28.831783 0.000000 -19.716952
LeftHandThumb1 -26.253704 0.000000 33.147579
Head -19.413277 17.360511 -37.561113
2260
root -0.866766 6.371420 -7.350377 -15.776868 -27.898802 47.345181
RightUpLeg -98.554713 10.260076 40.234290
RightLeg 144.438106 -0.000000 -0.000000
RightFoot -5.253292 19.328276 -70.361143
RightToeBase -292.521142 -0.000000 -0.000000
LeftUpLeg -13.203541 -24.270149 35.230973
LeftLeg 154.023332 -0.000000 -0.000000
LeftFoot 27.318914 15.596100 -19.766145
LeftToeBase 9.398104 -0.000000 -0.000000
Spine 32.755436 3.696132 -2.194526
RightShoulder -3.281369 -25.422533 -38.475981
RightArm -1.307269 3.498060 84.173307
RightForeArm -16.252323 -0.000000 76.454647
RightHand 28.884766 -0.000000 -64.821119
RightHandThumb1 -24.326973 -0.000000 -32.862282
LeftShoulder -35.475130 31.844502 -15.028497
LeftArm 27.054844 -0.199010 -81.813217
LeftForeArm 33.721561 -0.000000 45.709482
LeftHand -28.841384 -0.000000 -19.604297
LeftHandThumb1 -26.253704 0.000000 33.147579
Head -19.404113 17.400774 -37.499390
2261
root -0.870011 6.371821 -7.350627 -15.771722 -27.903308 47.345853
RightUpLeg -98.532322 10.267311 40.274548
RightLeg 144.419235 -0.000000 -0.000000
RightFoot -5.157205 19.299368 -70.345034
RightToeBase -292.503099 -0.000000 -0.000000
LeftUpLeg -13.216318 -24.295602 35.240931
LeftLeg 154.001614 -0.000000 -0.000000
LeftFoot 27.387675 15.752951 -19.784975
LeftToeBase 9.339405 -0.000000 -0.000000
Spine 32.749688 3.698428 -2.191406
RightShoulder -3.270843 -25.406152 -38.511478
RightArm -1.317502 3.447646 84.193545
RightForeArm -16.284569 -0.000000 76.415159
RightHand 28.848655 -0.000000 -64.911932
RightHandThumb1 -24.326973 -0.000000 -32.862282
LeftShoulder -35.502711 31.854271 -15.020938
LeftArm 27.034743 -0.171451 -81.812222
LeftForeArm 33.771579 -0.000000 45.813936
LeftHand -28.799169 -0.000000 -19.673739
LeftHandThumb1 -26.253704 0.000000 33.147579
Head -19.387949 17.453815 -37.424369
